<?xml version="1.0" encoding="UTF-8" standalone="no"?><!DOCTYPE svg PUBLIC "-//W3C//DTD SVG 1.1//EN" "http://www.w3.org/Graphics/SVG/1.1/DTD/svg11.dtd"><svg width="100%" height="100%" viewBox="0 0 4739 833" version="1.1" xmlns="http://www.w3.org/2000/svg" xmlns:xlink="http://www.w3.org/1999/xlink" xml:space="preserve" xmlns:serif="http://www.serif.com/" style="fill-rule:evenodd;clip-rule:evenodd;stroke-linecap:round;stroke-linejoin:round;stroke-miterlimit:1.5;"><rect id="Artboard1" x="0" y="0" width="4738.74" height="832.609" style="fill:none;"/><path d="M123.556,198.513c672.418,-51.227 526.071,56.992 1148.61,17.985" style="fill:none;stroke:#e81d1d;stroke-width:29.17px;"/><path d="M1322.42,212.017c530.669,34.381 415.173,-38.251 906.475,-12.071" style="fill:none;stroke:#1f4295;stroke-width:29.17px;"/><path d="M2284.87,206.278c417.148,-40.427 326.359,44.978 712.561,14.194" style="fill:none;stroke:#e81d1d;stroke-width:29.17px;"/><path d="M3042.02,217.007c276.816,-30.38 216.57,33.8 472.851,10.667" style="fill:none;stroke:#1f4295;stroke-width:29.17px;"/><path d="M3571.36,217.39c202.192,-27.27 158.186,30.339 345.379,9.574" style="fill:none;stroke:#e81d1d;stroke-width:29.17px;"/><path d="M3957.26,224.687c155.673,32.058 121.792,-35.665 265.917,-11.255" style="fill:none;stroke:#1f4295;stroke-width:29.17px;"/><path d="M4279.53,217.68c110.625,-24.912 86.548,27.716 188.967,8.746" style="fill:none;stroke:#e81d1d;stroke-width:29.17px;"/><path d="M4519.4,222.232c70.617,-17.496 55.248,19.465 120.626,6.143" style="fill:none;stroke:#1f4295;stroke-width:29.17px;"/><path d="M627.575,150.482l-8.789,0l0,-56.006c-2.116,2.018 -4.891,4.037 -8.325,6.055c-3.434,2.018 -6.519,3.532 -9.253,4.541l0,-8.496c4.915,-2.311 9.212,-5.111 12.891,-8.399c3.678,-3.287 6.282,-6.478 7.812,-9.57l5.664,0l0,71.875Z" style="fill:#fff;fill-rule:nonzero;"/><path d="M650.085,115.179c0,-8.463 0.871,-15.275 2.612,-20.434c1.742,-5.16 4.33,-9.139 7.764,-11.939c3.434,-2.799 7.756,-4.199 12.964,-4.199c3.841,0 7.21,0.773 10.107,2.319c2.897,1.547 5.29,3.776 7.178,6.69c1.888,2.913 3.369,6.461 4.443,10.644c1.075,4.183 1.612,9.823 1.612,16.919c0,8.399 -0.863,15.178 -2.588,20.337c-1.725,5.16 -4.305,9.147 -7.739,11.963c-3.435,2.816 -7.772,4.224 -13.013,4.224c-6.901,0 -12.321,-2.474 -16.26,-7.422c-4.72,-5.957 -7.08,-15.658 -7.08,-29.102Zm9.033,0c0,11.752 1.376,19.572 4.126,23.462c2.751,3.89 6.144,5.835 10.181,5.835c4.036,0 7.43,-1.953 10.181,-5.859c2.75,-3.906 4.126,-11.719 4.126,-23.438c0,-11.784 -1.376,-19.612 -4.126,-23.486c-2.751,-3.874 -6.177,-5.811 -10.279,-5.811c-4.036,0 -7.259,1.709 -9.668,5.127c-3.027,4.362 -4.541,12.419 -4.541,24.17Z" style="fill:#fff;fill-rule:nonzero;"/><path d="M705.7,115.179c0,-8.463 0.871,-15.275 2.613,-20.434c1.741,-5.16 4.329,-9.139 7.763,-11.939c3.434,-2.799 7.756,-4.199 12.964,-4.199c3.841,0 7.21,0.773 10.108,2.319c2.897,1.547 5.289,3.776 7.177,6.69c1.888,2.913 3.369,6.461 4.444,10.644c1.074,4.183 1.611,9.823 1.611,16.919c0,8.399 -0.863,15.178 -2.588,20.337c-1.725,5.16 -4.305,9.147 -7.739,11.963c-3.434,2.816 -7.772,4.224 -13.013,4.224c-6.901,0 -12.321,-2.474 -16.26,-7.422c-4.72,-5.957 -7.08,-15.658 -7.08,-29.102Zm9.033,0c0,11.752 1.376,19.572 4.126,23.462c2.751,3.89 6.145,5.835 10.181,5.835c4.037,0 7.43,-1.953 10.181,-5.859c2.75,-3.906 4.126,-11.719 4.126,-23.438c0,-11.784 -1.376,-19.612 -4.126,-23.486c-2.751,-3.874 -6.177,-5.811 -10.279,-5.811c-4.036,0 -7.259,1.709 -9.668,5.127c-3.027,4.362 -4.541,12.419 -4.541,24.17Z" style="fill:#fff;fill-rule:nonzero;"/><path d="M1725.7,88.275l0,-8.447l46.338,0l0,6.836c-4.557,4.85 -9.074,11.295 -13.55,19.336c-4.476,8.04 -7.934,16.308 -10.376,24.804c-1.758,5.99 -2.881,12.549 -3.369,19.678l-9.033,0c0.098,-5.631 1.204,-12.435 3.32,-20.41c2.116,-7.975 5.152,-15.666 9.107,-23.071c3.955,-7.406 8.162,-13.648 12.622,-18.726l-35.059,0Z" style="fill:#fff;fill-rule:nonzero;"/><path d="M1780.73,115.179c0,-8.463 0.871,-15.275 2.613,-20.434c1.741,-5.16 4.329,-9.139 7.763,-11.939c3.435,-2.799 7.756,-4.199 12.964,-4.199c3.841,0 7.211,0.773 10.108,2.319c2.897,1.547 5.289,3.776 7.177,6.69c1.888,2.913 3.37,6.461 4.444,10.644c1.074,4.183 1.611,9.823 1.611,16.919c0,8.399 -0.862,15.178 -2.588,20.337c-1.725,5.16 -4.305,9.147 -7.739,11.963c-3.434,2.816 -7.772,4.224 -13.013,4.224c-6.901,0 -12.321,-2.474 -16.259,-7.422c-4.721,-5.957 -7.081,-15.658 -7.081,-29.102Zm9.034,0c0,11.752 1.375,19.572 4.126,23.462c2.75,3.89 6.144,5.835 10.18,5.835c4.037,0 7.43,-1.953 10.181,-5.859c2.751,-3.906 4.126,-11.719 4.126,-23.438c0,-11.784 -1.375,-19.612 -4.126,-23.486c-2.751,-3.874 -6.177,-5.811 -10.278,-5.811c-4.037,0 -7.259,1.709 -9.668,5.127c-3.028,4.362 -4.541,12.419 -4.541,24.17Z" style="fill:#fff;fill-rule:nonzero;"/><path d="M2560.49,131.732l9.228,-0.781c0.684,4.492 2.271,7.869 4.761,10.132c2.49,2.262 5.493,3.393 9.009,3.393c4.232,0 7.812,-1.595 10.742,-4.785c2.93,-3.19 4.395,-7.422 4.395,-12.695c0,-5.013 -1.408,-8.968 -4.224,-11.866c-2.816,-2.897 -6.502,-4.345 -11.06,-4.345c-2.832,0 -5.387,0.643 -7.666,1.928c-2.278,1.286 -4.069,2.955 -5.371,5.005l-8.252,-1.074l6.934,-36.767l35.596,0l0,8.398l-28.565,0l-3.857,19.238c4.297,-2.995 8.805,-4.492 13.525,-4.492c6.25,0 11.524,2.165 15.82,6.494c4.297,4.33 6.446,9.896 6.446,16.699c0,6.478 -1.888,12.077 -5.664,16.797c-4.59,5.795 -10.856,8.692 -18.799,8.692c-6.511,0 -11.825,-1.823 -15.943,-5.469c-4.117,-3.646 -6.469,-8.48 -7.055,-14.502Z" style="fill:#fff;fill-rule:nonzero;"/><path d="M2616.11,115.179c0,-8.463 0.871,-15.275 2.612,-20.434c1.742,-5.16 4.33,-9.139 7.764,-11.939c3.434,-2.799 7.756,-4.199 12.964,-4.199c3.841,0 7.21,0.773 10.107,2.319c2.897,1.547 5.29,3.776 7.178,6.69c1.888,2.913 3.369,6.461 4.443,10.644c1.075,4.183 1.612,9.823 1.612,16.919c0,8.399 -0.863,15.178 -2.588,20.337c-1.725,5.16 -4.305,9.147 -7.739,11.963c-3.435,2.816 -7.772,4.224 -13.013,4.224c-6.901,0 -12.321,-2.474 -16.26,-7.422c-4.72,-5.957 -7.08,-15.658 -7.08,-29.102Zm9.033,0c0,11.752 1.376,19.572 4.126,23.462c2.751,3.89 6.144,5.835 10.181,5.835c4.036,0 7.43,-1.953 10.181,-5.859c2.75,-3.906 4.126,-11.719 4.126,-23.438c0,-11.784 -1.376,-19.612 -4.126,-23.486c-2.751,-3.874 -6.177,-5.811 -10.279,-5.811c-4.036,0 -7.259,1.709 -9.668,5.127c-3.027,4.362 -4.541,12.419 -4.541,24.17Z" style="fill:#fff;fill-rule:nonzero;"/><path d="M3257.59,150.482l0,-17.139l-31.055,0l0,-8.056l32.666,-46.387l7.178,0l0,46.387l9.668,0l0,8.056l-9.668,0l0,17.139l-8.789,0Zm0,-25.195l0,-32.276l-22.412,32.276l22.412,0Z" style="fill:#fff;fill-rule:nonzero;"/><path d="M3285.03,115.179c0,-8.463 0.871,-15.275 2.613,-20.434c1.741,-5.16 4.329,-9.139 7.763,-11.939c3.435,-2.799 7.756,-4.199 12.964,-4.199c3.841,0 7.21,0.773 10.108,2.319c2.897,1.547 5.289,3.776 7.177,6.69c1.888,2.913 3.369,6.461 4.444,10.644c1.074,4.183 1.611,9.823 1.611,16.919c0,8.399 -0.863,15.178 -2.588,20.337c-1.725,5.16 -4.305,9.147 -7.739,11.963c-3.434,2.816 -7.772,4.224 -13.013,4.224c-6.901,0 -12.321,-2.474 -16.26,-7.422c-4.72,-5.957 -7.08,-15.658 -7.08,-29.102Zm9.034,0c0,11.752 1.375,19.572 4.125,23.462c2.751,3.89 6.145,5.835 10.181,5.835c4.037,0 7.43,-1.953 10.181,-5.859c2.75,-3.906 4.126,-11.719 4.126,-23.438c0,-11.784 -1.376,-19.612 -4.126,-23.486c-2.751,-3.874 -6.177,-5.811 -10.279,-5.811c-4.036,0 -7.259,1.709 -9.667,5.127c-3.028,4.362 -4.541,12.419 -4.541,24.17Z" style="fill:#fff;fill-rule:nonzero;"/><path d="M3677.02,131.573l8.789,-1.172c1.009,4.981 2.726,8.57 5.151,10.767c2.425,2.197 5.38,3.296 8.863,3.296c4.134,0 7.625,-1.432 10.473,-4.297c2.849,-2.864 4.273,-6.413 4.273,-10.644c0,-4.037 -1.319,-7.365 -3.955,-9.986c-2.637,-2.62 -5.99,-3.93 -10.059,-3.93c-1.66,0 -3.727,0.325 -6.201,0.976l0.976,-7.715c0.586,0.065 1.058,0.098 1.416,0.098c3.744,0 7.113,-0.977 10.108,-2.93c2.995,-1.953 4.492,-4.964 4.492,-9.033c0,-3.223 -1.09,-5.892 -3.271,-8.008c-2.181,-2.116 -4.997,-3.174 -8.448,-3.174c-3.418,0 -6.266,1.075 -8.545,3.223c-2.278,2.148 -3.743,5.371 -4.394,9.668l-8.789,-1.562c1.074,-5.892 3.515,-10.458 7.324,-13.697c3.809,-3.239 8.545,-4.858 14.209,-4.858c3.906,0 7.503,0.838 10.791,2.514c3.288,1.677 5.802,3.964 7.544,6.861c1.741,2.897 2.612,5.973 2.612,9.228c0,3.093 -0.83,5.909 -2.49,8.448c-1.66,2.539 -4.118,4.557 -7.373,6.054c4.232,0.977 7.52,3.003 9.863,6.079c2.344,3.077 3.516,6.926 3.516,11.548c0,6.25 -2.279,11.548 -6.836,15.894c-4.557,4.346 -10.319,6.518 -17.285,6.518c-6.283,0 -11.499,-1.871 -15.65,-5.615c-4.15,-3.743 -6.518,-8.594 -7.104,-14.551Z" style="fill:#fff;fill-rule:nonzero;"/><path d="M3732.59,115.167c0,-8.463 0.871,-15.275 2.613,-20.434c1.741,-5.16 4.329,-9.139 7.763,-11.939c3.435,-2.799 7.756,-4.199 12.964,-4.199c3.841,0 7.21,0.773 10.108,2.319c2.897,1.546 5.289,3.776 7.177,6.69c1.888,2.913 3.369,6.461 4.444,10.644c1.074,4.183 1.611,9.823 1.611,16.919c0,8.399 -0.863,15.177 -2.588,20.337c-1.725,5.16 -4.305,9.147 -7.739,11.963c-3.434,2.816 -7.772,4.224 -13.013,4.224c-6.901,0 -12.321,-2.474 -16.26,-7.422c-4.72,-5.957 -7.08,-15.658 -7.08,-29.102Zm9.033,0c0,11.751 1.376,19.572 4.126,23.462c2.751,3.89 6.145,5.835 10.181,5.835c4.037,0 7.43,-1.953 10.181,-5.859c2.75,-3.907 4.126,-11.719 4.126,-23.438c0,-11.784 -1.376,-19.613 -4.126,-23.486c-2.751,-3.874 -6.177,-5.811 -10.279,-5.811c-4.036,0 -7.259,1.709 -9.667,5.127c-3.028,4.362 -4.542,12.419 -4.542,24.17Z" style="fill:#fff;fill-rule:nonzero;"/><path d="M4074.18,142.035l0,8.447l-47.314,0c-0.065,-2.116 0.277,-4.15 1.025,-6.103c1.205,-3.223 3.133,-6.397 5.786,-9.522c2.653,-3.125 6.486,-6.738 11.499,-10.84c7.78,-6.38 13.038,-11.434 15.772,-15.161c2.734,-3.727 4.101,-7.251 4.101,-10.571c0,-3.483 -1.245,-6.421 -3.735,-8.814c-2.49,-2.392 -5.737,-3.589 -9.741,-3.589c-4.232,0 -7.617,1.27 -10.156,3.809c-2.539,2.539 -3.825,6.055 -3.858,10.547l-9.033,-0.928c0.619,-6.738 2.946,-11.873 6.982,-15.405c4.037,-3.532 9.457,-5.298 16.26,-5.298c6.869,0 12.305,1.904 16.309,5.713c4.004,3.809 6.006,8.529 6.006,14.16c0,2.865 -0.586,5.68 -1.758,8.447c-1.172,2.767 -3.117,5.681 -5.835,8.741c-2.718,3.059 -7.235,7.259 -13.55,12.597c-5.273,4.427 -8.659,7.43 -10.156,9.009c-1.498,1.579 -2.735,3.166 -3.711,4.761l35.107,0Z" style="fill:#fff;fill-rule:nonzero;"/><path d="M4083.6,115.179c0,-8.463 0.871,-15.275 2.612,-20.434c1.742,-5.16 4.33,-9.139 7.764,-11.939c3.434,-2.799 7.756,-4.199 12.964,-4.199c3.841,0 7.21,0.773 10.107,2.319c2.898,1.547 5.29,3.776 7.178,6.69c1.888,2.913 3.369,6.461 4.444,10.644c1.074,4.183 1.611,9.823 1.611,16.919c0,8.399 -0.863,15.178 -2.588,20.337c-1.725,5.16 -4.305,9.147 -7.739,11.963c-3.435,2.816 -7.772,4.224 -13.013,4.224c-6.901,0 -12.321,-2.474 -16.26,-7.422c-4.72,-5.957 -7.08,-15.658 -7.08,-29.102Zm9.033,0c0,11.752 1.376,19.572 4.126,23.462c2.751,3.89 6.145,5.835 10.181,5.835c4.036,0 7.43,-1.953 10.181,-5.859c2.75,-3.906 4.126,-11.719 4.126,-23.438c0,-11.784 -1.376,-19.612 -4.126,-23.486c-2.751,-3.874 -6.177,-5.811 -10.279,-5.811c-4.036,0 -7.259,1.709 -9.668,5.127c-3.027,4.362 -4.541,12.419 -4.541,24.17Z" style="fill:#fff;fill-rule:nonzero;"/><path d="M4344.5,150.482l-8.789,0l0,-56.006c-2.116,2.018 -4.891,4.037 -8.325,6.055c-3.435,2.018 -6.519,3.532 -9.253,4.541l0,-8.496c4.915,-2.311 9.212,-5.111 12.89,-8.399c3.679,-3.287 6.283,-6.478 7.813,-9.57l5.664,0l0,71.875Z" style="fill:#fff;fill-rule:nonzero;"/><path d="M4367.01,131.732l9.228,-0.781c0.684,4.492 2.271,7.869 4.761,10.132c2.49,2.262 5.493,3.393 9.009,3.393c4.231,0 7.812,-1.595 10.742,-4.785c2.929,-3.19 4.394,-7.422 4.394,-12.695c0,-5.013 -1.408,-8.968 -4.223,-11.866c-2.816,-2.897 -6.503,-4.345 -11.06,-4.345c-2.832,0 -5.387,0.643 -7.666,1.928c-2.279,1.286 -4.069,2.955 -5.371,5.005l-8.252,-1.074l6.934,-36.767l35.595,0l0,8.398l-28.564,0l-3.858,19.238c4.297,-2.995 8.806,-4.492 13.526,-4.492c6.25,0 11.523,2.165 15.82,6.494c4.297,4.33 6.445,9.896 6.445,16.699c0,6.478 -1.888,12.077 -5.664,16.797c-4.589,5.795 -10.856,8.692 -18.798,8.692c-6.511,0 -11.825,-1.823 -15.943,-5.469c-4.118,-3.646 -6.47,-8.48 -7.055,-14.502Z" style="fill:#fff;fill-rule:nonzero;"/><path d="M4541.81,150.482l-8.789,0l0,-56.006c-2.116,2.018 -4.891,4.037 -8.325,6.055c-3.434,2.018 -6.519,3.532 -9.253,4.541l0,-8.496c4.915,-2.311 9.212,-5.111 12.891,-8.399c3.678,-3.287 6.282,-6.478 7.812,-9.57l5.664,0l0,71.875Z" style="fill:#fff;fill-rule:nonzero;"/><path d="M4564.32,115.179c0,-8.463 0.871,-15.275 2.612,-20.434c1.742,-5.16 4.33,-9.139 7.764,-11.939c3.434,-2.799 7.756,-4.199 12.964,-4.199c3.841,0 7.21,0.773 10.107,2.319c2.897,1.547 5.29,3.776 7.178,6.69c1.888,2.913 3.369,6.461 4.443,10.644c1.075,4.183 1.612,9.823 1.612,16.919c0,8.399 -0.863,15.178 -2.588,20.337c-1.725,5.16 -4.305,9.147 -7.739,11.963c-3.435,2.816 -7.772,4.224 -13.013,4.224c-6.901,0 -12.321,-2.474 -16.26,-7.422c-4.72,-5.957 -7.08,-15.658 -7.08,-29.102Zm9.033,0c0,11.752 1.376,19.572 4.126,23.462c2.751,3.89 6.144,5.835 10.181,5.835c4.036,0 7.43,-1.953 10.181,-5.859c2.75,-3.906 4.126,-11.719 4.126,-23.438c0,-11.784 -1.376,-19.612 -4.126,-23.486c-2.751,-3.874 -6.177,-5.811 -10.279,-5.811c-4.036,0 -7.259,1.709 -9.668,5.127c-3.027,4.362 -4.541,12.419 -4.541,24.17Z" style="fill:#fff;fill-rule:nonzero;"/><g><path d="M116.363,336.108l0,152.311" style="fill:none;stroke:#fff;stroke-width:12.5px;"/><path d="M118.922,414.679l2051.44,0" style="fill:none;stroke:#fff;stroke-width:12.5px;"/></g><g><path d="M116.363,589.871l0,152.312" style="fill:none;stroke:#fff;stroke-width:12.5px;"/><path d="M117.486,668.442l899.935,0" style="fill:none;stroke:#fff;stroke-width:12.5px;"/></g><g><path d="M2381.67,742.183l0,-152.312" style="fill:none;stroke:#fff;stroke-width:12.5px;"/><path d="M2380.45,663.612l-979.043,0" style="fill:none;stroke:#fff;stroke-width:12.5px;"/></g><g><path d="M4641.23,488.419l0,-152.311" style="fill:none;stroke:#fff;stroke-width:12.5px;"/><path d="M4638.64,409.849l-2080.89,0" style="fill:none;stroke:#fff;stroke-width:12.5px;"/></g><path d="M2281.58,429.696l8.789,-1.171c1.009,4.98 2.726,8.569 5.151,10.766c2.425,2.197 5.379,3.296 8.862,3.296c4.135,0 7.626,-1.432 10.474,-4.297c2.848,-2.864 4.273,-6.413 4.273,-10.644c0,-4.037 -1.319,-7.365 -3.956,-9.986c-2.636,-2.62 -5.989,-3.93 -10.058,-3.93c-1.66,0 -3.727,0.325 -6.201,0.976l0.976,-7.715c0.586,0.066 1.058,0.098 1.416,0.098c3.744,0 7.113,-0.976 10.108,-2.93c2.994,-1.953 4.492,-4.964 4.492,-9.033c0,-3.222 -1.091,-5.892 -3.272,-8.008c-2.181,-2.116 -4.996,-3.173 -8.447,-3.173c-3.418,0 -6.266,1.074 -8.545,3.222c-2.278,2.149 -3.743,5.371 -4.394,9.668l-8.789,-1.562c1.074,-5.892 3.515,-10.458 7.324,-13.697c3.808,-3.239 8.545,-4.858 14.209,-4.858c3.906,0 7.503,0.838 10.791,2.515c3.288,1.676 5.802,3.963 7.544,6.86c1.741,2.897 2.612,5.973 2.612,9.228c0,3.093 -0.83,5.909 -2.49,8.448c-1.66,2.539 -4.118,4.557 -7.373,6.054c4.232,0.977 7.519,3.003 9.863,6.08c2.344,3.076 3.516,6.925 3.516,11.547c0,6.25 -2.279,11.548 -6.836,15.894c-4.558,4.346 -10.319,6.519 -17.285,6.519c-6.283,0 -11.499,-1.872 -15.65,-5.616c-4.15,-3.743 -6.518,-8.593 -7.104,-14.551Z" style="fill:#fff;fill-rule:nonzero;"/><path d="M2337.19,429.696l8.789,-1.171c1.009,4.98 2.726,8.569 5.151,10.766c2.426,2.197 5.38,3.296 8.863,3.296c4.134,0 7.625,-1.432 10.473,-4.297c2.849,-2.864 4.273,-6.413 4.273,-10.644c0,-4.037 -1.319,-7.365 -3.955,-9.986c-2.637,-2.62 -5.99,-3.93 -10.059,-3.93c-1.66,0 -3.727,0.325 -6.201,0.976l0.976,-7.715c0.586,0.066 1.058,0.098 1.417,0.098c3.743,0 7.112,-0.976 10.107,-2.93c2.995,-1.953 4.492,-4.964 4.492,-9.033c0,-3.222 -1.09,-5.892 -3.271,-8.008c-2.181,-2.116 -4.997,-3.173 -8.448,-3.173c-3.418,0 -6.266,1.074 -8.545,3.222c-2.278,2.149 -3.743,5.371 -4.394,9.668l-8.789,-1.562c1.074,-5.892 3.515,-10.458 7.324,-13.697c3.809,-3.239 8.545,-4.858 14.209,-4.858c3.906,0 7.503,0.838 10.791,2.515c3.288,1.676 5.802,3.963 7.544,6.86c1.742,2.897 2.612,5.973 2.612,9.228c0,3.093 -0.83,5.909 -2.49,8.448c-1.66,2.539 -4.118,4.557 -7.373,6.054c4.232,0.977 7.52,3.003 9.863,6.08c2.344,3.076 3.516,6.925 3.516,11.547c0,6.25 -2.279,11.548 -6.836,15.894c-4.557,4.346 -10.319,6.519 -17.285,6.519c-6.283,0 -11.499,-1.872 -15.65,-5.616c-4.15,-3.743 -6.518,-8.593 -7.104,-14.551Z" style="fill:#fff;fill-rule:nonzero;"/><path d="M2392.76,429.843l9.229,-0.781c0.683,4.492 2.27,7.869 4.761,10.132c2.49,2.262 5.493,3.393 9.008,3.393c4.232,0 7.813,-1.595 10.743,-4.785c2.929,-3.19 4.394,-7.422 4.394,-12.695c0,-5.013 -1.408,-8.968 -4.224,-11.866c-2.815,-2.897 -6.502,-4.345 -11.059,-4.345c-2.832,0 -5.387,0.643 -7.666,1.928c-2.279,1.286 -4.069,2.955 -5.371,5.005l-8.252,-1.074l6.933,-36.767l35.596,0l0,8.398l-28.564,0l-3.858,19.238c4.297,-2.995 8.806,-4.492 13.526,-4.492c6.25,0 11.523,2.165 15.82,6.494c4.297,4.33 6.445,9.896 6.445,16.699c0,6.478 -1.888,12.077 -5.664,16.797c-4.59,5.795 -10.856,8.692 -18.799,8.692c-6.51,0 -11.824,-1.823 -15.942,-5.469c-4.118,-3.646 -6.47,-8.48 -7.056,-14.502Z" style="fill:#fff;fill-rule:nonzero;"/><path d="M1078.05,682.803l8.789,-1.172c1.009,4.98 2.726,8.569 5.151,10.766c2.425,2.198 5.379,3.296 8.862,3.296c4.134,0 7.626,-1.432 10.474,-4.297c2.848,-2.864 4.272,-6.412 4.272,-10.644c0,-4.037 -1.318,-7.365 -3.955,-9.986c-2.636,-2.62 -5.989,-3.93 -10.058,-3.93c-1.66,0 -3.727,0.325 -6.201,0.976l0.976,-7.715c0.586,0.066 1.058,0.098 1.416,0.098c3.744,0 7.113,-0.976 10.108,-2.93c2.994,-1.953 4.492,-4.964 4.492,-9.033c0,-3.222 -1.091,-5.892 -3.272,-8.008c-2.181,-2.115 -4.996,-3.173 -8.447,-3.173c-3.418,0 -6.266,1.074 -8.545,3.222c-2.279,2.149 -3.743,5.371 -4.394,9.668l-8.789,-1.562c1.074,-5.892 3.515,-10.458 7.324,-13.697c3.808,-3.239 8.545,-4.858 14.209,-4.858c3.906,0 7.503,0.838 10.791,2.515c3.287,1.676 5.802,3.963 7.544,6.86c1.741,2.897 2.612,5.973 2.612,9.229c0,3.092 -0.83,5.908 -2.49,8.447c-1.66,2.539 -4.118,4.557 -7.373,6.055c4.231,0.976 7.519,3.002 9.863,6.079c2.344,3.076 3.516,6.925 3.516,11.547c0,6.25 -2.279,11.548 -6.836,15.894c-4.558,4.346 -10.319,6.519 -17.285,6.519c-6.283,0 -11.5,-1.872 -15.65,-5.616c-4.15,-3.743 -6.518,-8.593 -7.104,-14.55Z" style="fill:#fff;fill-rule:nonzero;"/><path d="M1133.66,682.803l8.789,-1.172c1.009,4.98 2.726,8.569 5.151,10.766c2.425,2.198 5.379,3.296 8.863,3.296c4.134,0 7.625,-1.432 10.473,-4.297c2.849,-2.864 4.273,-6.412 4.273,-10.644c0,-4.037 -1.319,-7.365 -3.955,-9.986c-2.637,-2.62 -5.99,-3.93 -10.059,-3.93c-1.66,0 -3.727,0.325 -6.201,0.976l0.976,-7.715c0.586,0.066 1.058,0.098 1.416,0.098c3.744,0 7.113,-0.976 10.108,-2.93c2.995,-1.953 4.492,-4.964 4.492,-9.033c0,-3.222 -1.09,-5.892 -3.271,-8.008c-2.181,-2.115 -4.997,-3.173 -8.448,-3.173c-3.418,0 -6.266,1.074 -8.545,3.222c-2.278,2.149 -3.743,5.371 -4.394,9.668l-8.789,-1.562c1.074,-5.892 3.515,-10.458 7.324,-13.697c3.809,-3.239 8.545,-4.858 14.209,-4.858c3.906,0 7.503,0.838 10.791,2.515c3.288,1.676 5.802,3.963 7.544,6.86c1.741,2.897 2.612,5.973 2.612,9.229c0,3.092 -0.83,5.908 -2.49,8.447c-1.66,2.539 -4.118,4.557 -7.373,6.055c4.232,0.976 7.519,3.002 9.863,6.079c2.344,3.076 3.516,6.925 3.516,11.547c0,6.25 -2.279,11.548 -6.836,15.894c-4.557,4.346 -10.319,6.519 -17.285,6.519c-6.283,0 -11.499,-1.872 -15.65,-5.616c-4.15,-3.743 -6.518,-8.593 -7.104,-14.55Z" style="fill:#fff;fill-rule:nonzero;"/><path d="M1189.23,682.949l9.229,-0.781c0.683,4.492 2.27,7.869 4.76,10.132c2.491,2.262 5.494,3.393 9.009,3.393c4.232,0 7.813,-1.595 10.742,-4.785c2.93,-3.19 4.395,-7.422 4.395,-12.695c0,-5.013 -1.408,-8.968 -4.224,-11.866c-2.815,-2.897 -6.502,-4.345 -11.059,-4.345c-2.832,0 -5.388,0.643 -7.666,1.928c-2.279,1.286 -4.069,2.955 -5.371,5.005l-8.252,-1.074l6.933,-36.767l35.596,0l0,8.398l-28.564,0l-3.858,19.238c4.297,-2.995 8.805,-4.492 13.526,-4.492c6.25,0 11.523,2.165 15.82,6.494c4.297,4.33 6.445,9.896 6.445,16.699c0,6.478 -1.888,12.077 -5.664,16.797c-4.59,5.795 -10.856,8.692 -18.799,8.692c-6.51,0 -11.824,-1.823 -15.942,-5.469c-4.118,-3.646 -6.47,-8.48 -7.056,-14.502Z" style="fill:#fff;fill-rule:nonzero;"/><path d="M1240.69,702.92l20.752,-74.024l7.031,0l-20.703,74.024l-7.08,0Z" style="fill:#fff;fill-rule:nonzero;"/><path d="M1318.82,693.252l0,8.447l-47.314,0c-0.065,-2.116 0.276,-4.15 1.025,-6.103c1.204,-3.223 3.133,-6.397 5.786,-9.522c2.653,-3.125 6.486,-6.738 11.499,-10.84c7.78,-6.38 13.037,-11.434 15.772,-15.161c2.734,-3.727 4.101,-7.251 4.101,-10.571c0,-3.483 -1.245,-6.421 -3.735,-8.814c-2.49,-2.392 -5.737,-3.589 -9.741,-3.589c-4.232,0 -7.618,1.27 -10.157,3.809c-2.539,2.539 -3.824,6.055 -3.857,10.547l-9.033,-0.928c0.618,-6.738 2.946,-11.873 6.982,-15.405c4.037,-3.532 9.457,-5.298 16.26,-5.298c6.868,0 12.305,1.904 16.309,5.713c4.003,3.809 6.005,8.529 6.005,14.16c0,2.865 -0.586,5.68 -1.757,8.447c-1.172,2.767 -3.117,5.681 -5.835,8.741c-2.718,3.059 -7.235,7.259 -13.55,12.597c-5.274,4.427 -8.659,7.43 -10.156,9.009c-1.498,1.579 -2.735,3.166 -3.711,4.761l35.107,0Z" style="fill:#fff;fill-rule:nonzero;"/></svg>