<?xml version="1.0" encoding="UTF-8" standalone="no"?>
<svg
   xmlns:dc="http://purl.org/dc/elements/1.1/"
   xmlns:cc="http://creativecommons.org/ns#"
   xmlns:rdf="http://www.w3.org/1999/02/22-rdf-syntax-ns#"
   xmlns:svg="http://www.w3.org/2000/svg"
   xmlns="http://www.w3.org/2000/svg"
   viewBox="0 0 372.05334 92.133331"
   height="92.133331"
   width="372.05334"
   xml:space="preserve"
   id="svg2"
   version="1.1">
  <metadata id="metadata8"><rdf:RDF><cc:Work rdf:about=""><dc:format>image/svg+xml</dc:format>
  <dc:type rdf:resource="http://purl.org/dc/dcmitype/StillImage" /><dc:title>SNIC</dc:title>
  </cc:Work></rdf:RDF></metadata>
  <g shape-rendering="crispEdges" id="logo">
    <g style="fill:#1869A6" id="B">
      <rect width="33.5" height="33.5" x="12" y="45.5"/>
      <rect width="33.5" height="33.5" x="45.5" y="12"/>
    </g>
    <g style="fill:#F2CB12" id="Y">
      <rect width="33.5" height="33.5" x="0" y="0" />
      <rect width="33.5" height="33.5" x="57.5" y="57.5" />
    </g>
  </g>
  <g style="fill:#000000;" id="SNIC">
  <path d="m 121.02293,80.260932 5.314,-9.385466 c 0.9048,-1.470267 3.0532,-1.2448 3.8448,-0.678134 0.45267,0.225067 8.59427,6.218267 16.05693,6.218267 4.52267,0 7.80267,-2.826534 7.80267,-6.784933 0,-4.748934 -3.95733,-8.367067 -11.64667,-11.419733 -9.72533,-3.845334 -21.93733,-11.421334 -21.93733,-24.990667 0,-11.194266 8.70667,-22.502532 26.12133,-22.502532 11.75867,0 20.80667,5.9932 24.19867,8.480666 1.356,0.791733 1.13067,2.8276 0.67733,3.618267 L 165.688,31.524 c -0.792,1.244266 -2.82667,2.262 -3.844,1.469733 -1.01734,-0.564533 -9.27334,-6.7844 -16.17067,-6.7844 -4.07067,0 -7.124,2.714667 -7.124,5.7672 0,4.183867 3.39333,7.35 12.32533,10.9688 8.82,3.5052 22.84267,10.402533 22.84267,25.781733 0,11.645852 -10.064,23.406265 -26.68667,23.406265 -14.7004,0 -22.8416,-6.105733 -25.44266,-8.705733 -1.13067,-1.13124 -1.47027,-1.583333 -0.56507,-3.166666" id="S" />
  <path d="m 187.4,12.753067 c 0,-1.130667 1.01866,-2.035333 2.14933,-2.035333 h 2.82667 l 45.11866,43.422399 h 0.11333 V 13.997334 c 0,-1.1312 0.904,-2.1484 2.148,-2.1484 h 13.56934 c 1.12933,0 2.148,1.0172 2.148,2.1484 v 76.100584 c 0,1.131768 -1.01867,2.035413 -2.148,2.035413 h -1.81067 c -0.33867,0 -1.24133,-0.338541 -1.468,-0.565104 L 205.37999,46.675999 h -0.11333 v 42.178692 c 0,1.1302 -0.904,2.148432 -2.148,2.148432 h -13.456 c -1.132,0 -2.14933,-1.018232 -2.14933,-2.148432 L 187.4,12.753067" id="N" />
  <path d="m 273.79599,13.997334 c 0,-1.1312 1.01734,-2.1484 2.148,-2.1484 h 13.56934 c 1.132,0 2.14933,1.0172 2.14933,2.1484 v 74.857357 c 0,1.1302 -1.01733,2.148432 -2.14933,2.148432 h -13.56934 c -1.13066,0 -2.148,-1.018232 -2.148,-2.148432 V 13.997334" id="I" />
  <path d="m 343.90399,10.717734 c 11.308,0 19.676,3.505733 27.36533,10.516666 1.01734,0.904133 1.01734,2.261467 0.11334,3.1656 l -8.82134,9.159866 c -0.79066,0.791734 -2.03466,0.791734 -2.82666,0 -4.18267,-3.731733 -9.724,-5.767199 -15.26534,-5.767199 -12.77733,0 -22.16266,10.629199 -22.16266,23.293732 0,12.552133 9.49867,22.955733 22.276,22.955733 5.31466,0 11.08266,-1.9228 15.152,-5.428133 0.792,-0.678533 2.26266,-0.678533 2.94,0.113067 l 8.82133,9.385466 c 0.79067,0.791626 0.67733,2.260386 -0.11333,3.052053 -7.68934,7.463533 -17.41467,10.968746 -27.47867,10.968746 -22.616,0 -40.82,-17.979199 -40.82,-40.594265 0,-22.615066 18.204,-40.821332 40.82,-40.821332" id="C" />
  </g>
</svg>
